<svg xmlns="http://www.w3.org/2000/svg" version="1.1" xmlns:xlink="http://www.w3.org/1999/xlink" xmlns:svgjs="http://svgjs.com/svgjs" width="1440" height="560" preserveAspectRatio="none" viewBox="0 0 1440 560"><g mask="url(&quot;#SvgjsMask1006&quot;)" fill="none"><rect width="1440" height="560" x="0" y="0" fill="#0e2a47"></rect><path d="M713.82,605.881C741.715,605.604,767.812,591.57,781.773,567.419C795.747,543.246,796.695,512.516,781.234,489.265C767.076,467.973,739.39,465.091,713.82,465.227C688.576,465.361,661.82,469.092,647.638,489.976C631.797,513.303,629.51,544.305,643.492,568.791C657.577,593.459,685.415,606.163,713.82,605.881" fill="rgba(28, 83, 142, 0.4)" class="triangle-float1"></path><path d="M1307.2234716759872 317.27650528081585L1412.622418212307 253.94642902014994 1349.292341951641 148.54748248383012 1243.8933954153213 211.87755874449604z" fill="rgba(28, 83, 142, 0.4)" class="triangle-float1"></path><path d="M1063.929,593.709C1124.841,594.138,1190.527,575.226,1218.109,520.915C1244.103,469.732,1212.845,411.988,1180.197,364.771C1152.947,325.361,1111.817,299.472,1063.929,297.933C1012.97,296.295,962.662,314.723,933.954,356.858C901.124,405.043,885.418,467.653,913.468,518.768C942.359,571.415,1003.877,593.286,1063.929,593.709" fill="rgba(28, 83, 142, 0.4)" class="triangle-float2"></path><path d="M531.6186286504724 132.1170328994281L554.8357686410457-33.08150202985294 389.6372337117647-56.298642020426286 366.42009372119134 108.89989290885475z" fill="rgba(28, 83, 142, 0.4)" class="triangle-float3"></path><path d="M2.29 324.86 a156.83 156.83 0 1 0 313.66 0 a156.83 156.83 0 1 0 -313.66 0z" fill="rgba(28, 83, 142, 0.4)" class="triangle-float1"></path><path d="M-46.44654699734289 100.15818028440412L20.06337893089713 236.5237369182292 156.4289355647222 170.01381098998917 89.91900963648217 33.6482543561641z" fill="rgba(28, 83, 142, 0.4)" class="triangle-float3"></path><path d="M-50.42 37.69 a134.29 134.29 0 1 0 268.58 0 a134.29 134.29 0 1 0 -268.58 0z" fill="rgba(28, 83, 142, 0.4)" class="triangle-float3"></path><path d="M791.3722762259549 321.57880874241766L884.7141741866792 276.0529232283832 769.7543969352653 158.80301904431417z" fill="rgba(28, 83, 142, 0.4)" class="triangle-float1"></path><path d="M1040.207,194.283C1068.156,194.259,1086.798,169.274,1101.241,145.346C1116.385,120.256,1132.423,90.702,1118.187,65.086C1103.714,39.044,1069.961,33.973,1040.207,35.525C1013.5,36.918,988.157,49.181,975.146,72.545C962.456,95.333,966.694,122.448,978.988,145.452C992.175,170.126,1012.23,194.307,1040.207,194.283" fill="rgba(28, 83, 142, 0.4)" class="triangle-float3"></path><path d="M644.29 33.83 a117.85 117.85 0 1 0 235.7 0 a117.85 117.85 0 1 0 -235.7 0z" fill="rgba(28, 83, 142, 0.4)" class="triangle-float3"></path><path d="M829.0434047786159 401.28499402406067L892.9994213227787 270.1557276114545 697.9141383660098 337.32897747989784z" fill="rgba(28, 83, 142, 0.4)" class="triangle-float3"></path></g><defs><mask id="SvgjsMask1006"><rect width="1440" height="560" fill="#ffffff"></rect></mask><style>
            @keyframes float1 {
                0%{transform: translate(0, 0)}
                50%{transform: translate(-10px, 0)}
                100%{transform: translate(0, 0)}
            }

            .triangle-float1 {
                animation: float1 5s infinite;
            }

            @keyframes float2 {
                0%{transform: translate(0, 0)}
                50%{transform: translate(-5px, -5px)}
                100%{transform: translate(0, 0)}
            }

            .triangle-float2 {
                animation: float2 4s infinite;
            }

            @keyframes float3 {
                0%{transform: translate(0, 0)}
                50%{transform: translate(0, -10px)}
                100%{transform: translate(0, 0)}
            }

            .triangle-float3 {
                animation: float3 6s infinite;
            }
        </style></defs></svg>